<?xml version="1.0" encoding="UTF-8" standalone="no"?>
<!DOCTYPE svg PUBLIC "-//W3C//DTD SVG 1.1//EN" "http://www.w3.org/Graphics/SVG/1.1/DTD/svg11.dtd">
<svg width="100%" height="100%" viewBox="0 0 512 512" version="1.1" xmlns="http://www.w3.org/2000/svg" xmlns:xlink="http://www.w3.org/1999/xlink" xml:space="preserve" xmlns:serif="http://www.serif.com/" style="fill-rule:evenodd;clip-rule:evenodd;stroke-linejoin:round;stroke-miterlimit:2;">
    <path d="M312.889,131.444C312.889,92.156 344.711,60.333 384,60.333C423.289,60.333 455.111,92.156 455.111,131.444L455.111,174.111C455.111,189.844 467.822,202.556 483.556,202.556C499.289,202.556 512,189.844 512,174.111L512,131.444C512,60.778 454.667,3.444 384,3.444C313.333,3.444 256,60.778 256,131.444L256,227.111L56.889,227.111C25.511,227.111 0,252.622 0,284L0,454.667C0,486.044 25.511,511.556 56.889,511.556L341.333,511.556C372.711,511.556 398.222,486.044 398.222,454.667L398.222,284C398.222,252.622 372.711,227.111 341.333,227.111L312.889,227.111L312.889,131.444Z" style="fill-rule:nonzero;"/>
</svg>
